#!OML:ASF H:\Dans Jumps\Project 1\Capture day 1\Session 1\subject.ASF
:FULLY-SPECIFIED
:DEGREES
436
root 0.417438 17.7352 7.31091 9.18128 0.21296 -1.58791
lowerback -0.98173 -0.230941 -0.177798
upperback 3.15497 -0.363406 1.81788
thorax 3.80932 -0.217011 1.95708
lowerneck -11.3097 0.209622 -1.91641
upperneck 37.9116 0.23949 1.57443
head 15.0947 0.0405407 1.04368
rclavicle 5.06901e-015 -1.59028e-015
rhumerus -24.7519 -14.4042 -80.0952
rradius 23.0888
rwrist 37.4288
rhand -15.8576 -25.532
rfingers 7.12502
rthumb 10.3375 -55.2579
lclavicle 5.06901e-015 -1.59028e-015
lhumerus -22.0455 -1.021 87.7961
lradius 17.3396
lwrist 4.14219
lhand -24.809 -4.17214
lfingers 7.12502
lthumb 1.69603 25.8009
rfemur -12.9868 -1.79576 19.7285
rtibia 18.9561
rfoot -12.8753 -2.85771
rtoes 14.0823
lfemur -14.0049 6.33463 -17.6061
ltibia 18.2136
lfoot -10.5847 2.95957
ltoes 0.590759
437
root 0.415441 17.735 7.307 9.1649 0.242956 -1.59188
lowerback -1.01744 -0.224609 -0.165346
upperback 3.14518 -0.355289 1.81247
thorax 3.81896 -0.212485 1.94475
lowerneck -11.2842 0.195008 -1.92571
upperneck 37.9165 0.2182 1.58019
head 15.0917 0.0311521 1.04443
rclavicle 2.48481e-015 1.59028e-015
rhumerus -24.7646 -14.4179 -80.0857
rradius 23.085
rwrist 37.4349
rhand -15.8339 -25.5349
rfingers 7.12502
rthumb 10.3604 -55.2597
lclavicle 2.48481e-015 1.59028e-015
lhumerus -22.0018 -0.891589 87.6847
lradius 17.293
lwrist 4.1622
lhand -24.8858 -4.16274
lfingers 7.12502
lthumb 1.62189 25.8108
rfemur -12.9739 -1.81577 19.7423
rtibia 18.9472
rfoot -12.8683 -2.86535
rtoes 14.0944
lfemur -14.0043 6.2924 -17.5895
ltibia 18.2161
lfoot -10.5796 2.97486
ltoes 0.580791
438
root 0.413843 17.735 7.3035 9.14487 0.26967 -1.59228
lowerback -1.05835 -0.219243 -0.155502
upperback 3.14204 -0.348504 1.80606
thorax 3.83851 -0.208769 1.93283
lowerneck -11.2794 0.184444 -1.92555
upperneck 37.9294 0.203961 1.57735
head 15.0973 0.0248927 1.0412
rclavicle 6.4605e-015 -1.15295e-014
rhumerus -24.7759 -14.4258 -80.0773
rradius 23.0855
rwrist 37.4336
rhand -15.8076 -25.5481
rfingers 7.12502
rthumb 10.3858 -55.2716
lclavicle 6.4605e-015 -1.15295e-014
lhumerus -21.9531 -0.740933 87.5696
lradius 17.217
lwrist 4.1269
lhand -25.0415 -4.40721
lfingers 7.12502
lthumb 1.47149 25.5675
rfemur -12.9532 -1.8486 19.7495
rtibia 18.9353
rfoot -12.8649 -2.85219
rtoes 14.1259
lfemur -13.9926 6.25085 -17.5784
ltibia 18.2099
lfoot -10.5727 2.99149
ltoes 0.567223
439
root 0.412421 17.735 7.2999 9.12105 0.291918 -1.5984
lowerback -1.09545 -0.212582 -0.140165
upperback 3.14246 -0.340196 1.79995
thorax 3.85952 -0.204155 1.91822
lowerneck -11.289 0.178441 -1.91295
upperneck 37.9457 0.196595 1.56603
head 15.1078 0.022169 1.03337
rclavicle 1.98785e-016 -3.97569e-016
rhumerus -24.7888 -14.4412 -80.0699
rradius 23.0901
rwrist 37.4336
rhand -15.7773 -25.571
rfingers 7.12502
rthumb 10.415 -55.293
lclavicle 1.98785e-016 -3.97569e-016
lhumerus -21.8997 -0.56616 87.448
lradius 17.1104
lwrist 4.02724
lhand -25.209 -4.79752
lfingers 7.12502
lthumb 1.30971 25.1782
rfemur -12.9266 -1.87883 19.7613
rtibia 18.9189
rfoot -12.8601 -2.83341
rtoes 14.1749
lfemur -13.9739 6.21036 -17.5611
ltibia 18.1998
lfoot -10.5642 3.01148
ltoes 0.546757
440
root 0.411092 17.7351 7.29641 9.09486 0.305511 -1.60973
lowerback -1.13087 -0.203206 -0.121616
upperback 3.14452 -0.328404 1.79429
thorax 3.88115 -0.197724 1.90244
lowerneck -11.2998 0.175715 -1.89861
upperneck 37.9573 0.193262 1.55592
head 15.1163 0.0215943 1.02631
rclavicle -2.08724e-015 8.34896e-015
rhumerus -24.8019 -14.4675 -80.0621
rradius 23.0925
rwrist 37.4349
rhand -15.746 -25.6026
rfingers 7.12502
rthumb 10.4451 -55.3232
lclavicle -2.08724e-015 8.34896e-015
lhumerus -21.8595 -0.343148 87.3198
lradius 17.0255
lwrist 3.89028
lhand -25.3433 -5.1244
lfingers 7.12502
lthumb 1.18004 24.8521
rfemur -12.8948 -1.90013 19.7771
rtibia 18.8954
rfoot -12.852 -2.81208
rtoes 14.2327
lfemur -13.9515 6.17283 -17.5384
ltibia 18.191
lfoot -10.5566 3.0385
ltoes 0.519751
441
root 0.409688 17.7352 7.29269 9.06872 0.31041 -1.62832
lowerback -1.15826 -0.190797 -0.100393
upperback 3.14196 -0.312612 1.79137
thorax 3.89332 -0.189197 1.88818
lowerneck -11.3019 0.174977 -1.89087
upperneck 37.964 0.19169 1.55351
head 15.1201 0.0218834 1.02382
rclavicle 4.96962e-015 -6.16232e-015
rhumerus -24.8205 -14.5067 -80.049
rradius 23.0892
rwrist 37.4458
rhand -15.7142 -25.6369
rfingers 7.12502
rthumb 10.4759 -55.3559
lclavicle 4.96962e-015 -6.16232e-015
lhumerus -21.8312 -0.0913346 87.1904
lradius 16.9597
lwrist 3.73727
lhand -25.4254 -5.3315
lfingers 7.12502
lthumb 1.10072 24.6454
rfemur -12.8629 -1.90535 19.8002
rtibia 18.8668
rfoot -12.8385 -2.79763
rtoes 14.2923
lfemur -13.9305 6.14065 -17.5078
ltibia 18.1841
lfoot -10.5483 3.07098
ltoes 0.500299
442
root 0.408201 17.7353 7.28881 9.04625 0.298805 -1.65642
lowerback -1.18425 -0.174041 -0.0747332
upperback 3.13238 -0.291172 1.79194
thorax 3.89721 -0.177709 1.87528
lowerneck -11.2928 0.173992 -1.89801
upperneck 37.9726 0.188244 1.56523
head 15.1222 0.0211006 1.02963
rclavicle -3.57812e-015 9.34288e-015
rhumerus -24.852 -14.5465 -80.0329
rradius 23.0898
rwrist 37.4583
rhand -15.6838 -25.6712
rfingers 7.12502
rthumb 10.5052 -55.3887
lclavicle -3.57812e-015 9.34288e-015
lhumerus -21.8191 0.182848 87.062
lradius 16.9464
lwrist 3.61646
lhand -25.4048 -5.25029
lfingers 7.12502
lthumb 1.1206 24.7265
rfemur -12.8388 -1.89673 19.8335
rtibia 18.8362
rfoot -12.8185 -2.78506
rtoes 14.3232
lfemur -13.9124 6.11937 -17.4682
ltibia 18.1777
lfoot -10.5387 3.11028
ltoes 0.487355
443
root 0.406584 17.7354 7.28479 9.03022 0.276698 -1.68104
lowerback -1.21555 -0.155476 -0.0543625
upperback 3.11654 -0.267062 1.79086
thorax 3.89758 -0.164983 1.86375
lowerneck -11.2724 0.171948 -1.91597
upperneck 37.9844 0.181301 1.58909
head 15.1233 0.0188536 1.04191
rclavicle -4.17448e-015 -2.98177e-015
rhumerus -24.8904 -14.5909 -80.0169
rradius 23.0894
rwrist 37.474
rhand -15.6549 -25.7018
rfingers 7.12502
rthumb 10.5331 -55.4179
lclavicle -4.17448e-015 -2.98177e-015
lhumerus -21.8217 0.436823 86.9408
lradius 16.9275
lwrist 3.47352
lhand -25.4247 -5.21539
lfingers 7.12502
lthumb 1.10135 24.7615
rfemur -12.8254 -1.87898 19.8629
rtibia 18.8079
rfoot -12.7963 -2.77344
rtoes 14.3612
lfemur -13.8997 6.11253 -17.4343
ltibia 18.1691
lfoot -10.5273 3.14548
ltoes 0.478769
